<svg id="park" xmlns="http://www.w3.org/2000/svg" xmlns:xlink="http://www.w3.org/1999/xlink" version="1.1" x="0px" y="0px" viewBox="9 24 82 49" style="enable-background:new 0 0 100 100;" fill="#0000ff" xml:space="preserve"><g><path d="M89.2,41.4h-5.1c-0.3,0-0.5,0.1-0.7,0.2c0,0,0,0,0,0l-10.1,5.6c-0.8,0.5-1.4,1.3-1.4,2.3c-0.4,6.3-5.8,11.3-12.1,11.3H40.3   c-6.3,0-11.6-4.9-12.1-11.3c-0.1-0.9-0.6-1.8-1.5-2.3l-10.1-5.6c0,0,0,0,0,0c-0.2-0.1-0.5-0.2-0.8-0.2h-5.1c-0.9,0-1.6,0.7-1.6,1.6   v28c0,0.9,0.7,1.6,1.6,1.6h78.4c0.9,0,1.6-0.7,1.6-1.6V43C90.8,42.1,90,41.4,89.2,41.4z M73.8,49.6c0-0.3,0.2-0.5,0.4-0.7l8.2-4.5   c-0.9,8.2-7.1,14.7-15.1,16C71,58.1,73.5,54.2,73.8,49.6z M26.2,49.6c0.3,4.6,2.8,8.5,6.4,10.9c-8-1.3-14.2-7.8-15.1-16l8.2,4.5   C26,49.1,26.2,49.3,26.2,49.6z M88.8,70.6H11.2V43.4h4.2c0.5,10.9,9.3,19.3,20.3,19.3h28.6c10.9,0,19.8-8.4,20.3-19.3h4.2V70.6z"/><path d="M67.4,43.7l-0.6-0.1c-0.5-0.1-1.1,0.3-1.2,0.8c-0.1,0.5,0.3,1.1,0.8,1.2l0.6,0.1c0.2,0,0.5,0.1,0.7,0.1c0.1,0,0.1,0,0.2,0   c0,0.2,0.1,0.4,0.2,0.5c0.3,0.5,0.8,0.8,1.3,0.8c0.2,0,0.5-0.1,0.7-0.2c0.3-0.2,0.6-0.5,0.7-0.9c0.1-0.4,0.1-0.8-0.1-1.1   c0,0-0.1-0.1-0.1-0.1l3.8-2.1c0,0.1,0,0.1,0.1,0.2c0.3,0.5,0.8,0.8,1.3,0.8c0.2,0,0.5-0.1,0.7-0.2c0.7-0.4,1-1.3,0.6-2l0,0   c-0.1-0.2-0.2-0.3-0.4-0.4c0.2-0.2,0.3-0.5,0.4-0.8l0.2-0.6c0.2-0.5-0.1-1.1-0.6-1.3c-0.5-0.2-1.1,0.1-1.3,0.6l-0.2,0.6   c-0.1,0.4-0.4,0.6-0.7,0.8l-5.9,3.3C68.1,43.7,67.7,43.7,67.4,43.7z"/><path d="M62.3,34.4c0.1,0.5,0.5,0.9,1,0.9c0,0,0.1,0,0.1,0c0.5-0.1,0.9-0.6,0.9-1.1l-0.3-2l1.5-1.3l-0.2,2.6c0,0.2,0,0.4,0.1,0.6   l1.6,2.7l-0.5,4.1c-0.1,0.5,0.3,1,0.9,1.1c0,0,0.1,0,0.1,0c0.5,0,0.9-0.4,1-0.9l0.5-4.4c0-0.2,0-0.4-0.1-0.6l-1.1-1.8l2.8-0.8   l1.1,2c0.2,0.3,0.5,0.5,0.9,0.5c0.2,0,0.3,0,0.5-0.1c0.5-0.3,0.6-0.9,0.4-1.4l-1.5-2.7c-0.2-0.4-0.7-0.6-1.1-0.5l-3.5,1l0.2-2.4   l2.5,0.6c0.3,0.1,0.7,0,0.9-0.2l1.7-1.5c0.4-0.4,0.4-1,0.1-1.4c-0.4-0.4-1-0.4-1.4-0.1l-1.3,1.2l-1.8-0.5c0.6-0.7,0.7-1.6,0.3-2.5   c0,0,0,0,0,0c-0.6-1.1-1.9-1.6-3.1-1.1c-1.1,0.6-1.6,1.9-1.1,3.1c0.2,0.4,0.5,0.7,0.9,1l-3,2.6c-0.3,0.2-0.4,0.6-0.3,0.9L62.3,34.4   z M66.4,26.1c0,0,0.1,0,0.1,0c0.1,0,0.2,0.1,0.3,0.2c0.1,0.2,0,0.3-0.1,0.4c-0.2,0.1-0.3,0-0.4-0.1C66.2,26.4,66.3,26.2,66.4,26.1z   "/></g></svg>