<svg id="spot" xmlns="http://www.w3.org/2000/svg" xmlns:xlink="http://www.w3.org/1999/xlink" version="1.1" x="0px" y="0px" viewBox="8 2 89 101" style="enable-background:new 0 0 105 105;" fill="#0000ff" xml:space="preserve"><path d="M70.5,3c-0.3-0.3-0.8-0.5-1.2-0.5c-0.4,0-0.8,0.2-1.2,0.5L9,59.5c-0.7,0.6-0.7,1.7-0.1,2.4c0.3,0.3,0.8,0.5,1.2,0.5  c0.4,0,0.8-0.2,1.2-0.5L70.5,5.4C71.2,4.8,71.2,3.7,70.5,3z M58.5,51.5V19.3l-3,2.8v29.3H58.5z M32.5,76.5V44l-3,2.8v29.6H32.5z   M96.3,40.5H64.9c-0.9,0-1.4,1.1-1.4,2v11H52.9c-0.9,0-1.4,0.7-1.4,1.6v10.4H40.3c-0.9,0-1.8,1.3-1.8,2.2v10.8H27.7  c-0.9,0-2.2,0.9-2.2,1.8v11.2h-9.7c-0.9,0-1.3,0.5-1.3,1.4v9.6l29.3,0c0.8,0,1.4-0.2,2-0.6l50.7-49.2V40.9  C96.5,40.9,96.4,40.5,96.3,40.5z"/></svg>